<?xml version="1.0" encoding="UTF-8"?>
<!DOCTYPE svg PUBLIC "-//W3C//DTD SVG 1.1//EN" "http://www.w3.org/Graphics/SVG/1.1/DTD/svg11.dtd">
<!-- Creator: CorelDRAW 2017 -->
<svg xmlns="http://www.w3.org/2000/svg" xml:space="preserve" width="50px" height="58px" version="1.1" style="shape-rendering:geometricPrecision; text-rendering:geometricPrecision; image-rendering:optimizeQuality; fill-rule:evenodd; clip-rule:evenodd"
viewBox="0 0 50 58.33"
 xmlns:xlink="http://www.w3.org/1999/xlink"
 enable-background="new 0 0 64 64">
 <defs>
  <style type="text/css">
   <![CDATA[
    .fil0 {fill:white}
   ]]>
  </style>
 </defs>
 <g id="Layer_x0020_1">
  <metadata id="CorelCorpID_0Corel-Layer"/>
  <g id="dribbble.svg">
   <g>
    <path class="fil0" d="M26.53 16.17c-7.92,0 -14.36,6.44 -14.36,14.36 0,7.92 6.44,14.36 14.36,14.36 7.92,0 14.36,-6.44 14.36,-14.36 0,-7.92 -6.44,-14.36 -14.36,-14.36zm12.57 14.36c-3.49,-0.91 -6.54,-0.94 -9.16,-0.44 -0.38,-0.89 -0.78,-1.74 -1.18,-2.55 2.76,-1.11 5.37,-2.74 7.38,-5.09 1.84,2.19 2.96,5.01 2.96,8.08 0,0 0,0 0,0l0 0zm-4.21 -9.36c-1.84,2.2 -4.33,3.71 -6.96,4.74 -1.85,-3.5 -3.65,-6.14 -4.65,-7.5 1.04,-0.28 2.12,-0.45 3.25,-0.45 3.21,0 6.13,1.23 8.36,3.21zm-13.39 -2.15c0.81,1.09 2.72,3.78 4.7,7.5 -4.91,1.52 -9.93,1.61 -11.99,1.56 0.8,-4.07 3.58,-7.43 7.29,-9.06zm-7.54 11.51c0,-0.22 0.02,-0.44 0.03,-0.65 0.34,0.01 0.76,0.02 1.24,0.02 2.63,0 7.26,-0.26 11.81,-1.74 0.38,0.75 0.75,1.54 1.11,2.36 -6.03,1.82 -9.53,6.4 -10.86,8.5 -2.06,-2.23 -3.33,-5.21 -3.33,-8.49zm4.65 9.75c0.98,-1.71 4.19,-6.46 10.23,-8.14 1.22,3 2.26,6.34 2.85,9.84 -1.58,0.71 -3.32,1.12 -5.16,1.12 -3,0 -5.76,-1.06 -7.92,-2.82zm14.74 0.79c-0.6,-3.32 -1.58,-6.47 -2.71,-9.32 2.38,-0.37 5.14,-0.27 8.31,0.6 -0.53,3.65 -2.63,6.79 -5.6,8.72l0 0z"/>
   </g>
  </g>
 </g>
</svg>
