<?xml version="1.0" encoding="UTF-8"?>
<!DOCTYPE svg PUBLIC "-//W3C//DTD SVG 1.1//EN" "http://www.w3.org/Graphics/SVG/1.1/DTD/svg11.dtd">
<!-- Creator: CorelDRAW 2017 -->
<svg xmlns="http://www.w3.org/2000/svg" xml:space="preserve" width="52px" height="61px" version="1.1" style="shape-rendering:geometricPrecision; text-rendering:geometricPrecision; image-rendering:optimizeQuality; fill-rule:evenodd; clip-rule:evenodd"
viewBox="0 0 52 60.67"
 xmlns:xlink="http://www.w3.org/1999/xlink">
 <defs>
  <style type="text/css">
   <![CDATA[
    .fil0 {fill:#5FCF80}
   ]]>
  </style>
 </defs>
 <g id="Layer_x0020_1">
  <metadata id="CorelCorpID_0Corel-Layer"/>
  <g id="drupal-logo.svg">
   <g>
    <path id="Drupal" class="fil0" d="M32.74 17.36c-1.72,-1.06 -3.34,-1.48 -4.95,-2.54 -1,-0.68 -2.39,-2.29 -3.56,-3.68 -0.23,2.23 -0.91,3.13 -1.68,3.78 -1.65,1.28 -2.69,1.67 -4.11,2.44 -1.2,0.62 -7.7,4.48 -7.7,12.8 0,8.32 7.02,14.45 14.82,14.45 7.79,0 14.55,-5.65 14.55,-14.19 0,-8.54 -6.34,-12.41 -7.37,-13.06zm0.13 23.99c-0.16,0.16 -1.65,1.2 -3.4,1.36 -1.74,0.16 -4.11,0.25 -5.53,-1.04 -0.22,-0.22 -0.16,-0.54 0,-0.67 0.16,-0.13 0.29,-0.23 0.49,-0.23 0.19,0 0.16,0 0.26,0.07 0.64,0.51 1.61,0.93 3.68,0.93 2.07,0 3.53,-0.58 4.18,-1.06 0.29,-0.23 0.42,-0.03 0.45,0.1 0.03,0.12 0.1,0.32 -0.13,0.54zm-5.61 -2.71c0.36,-0.32 0.94,-0.84 1.49,-1.07 0.55,-0.22 0.84,-0.19 1.36,-0.19 0.52,0 1.07,0.03 1.46,0.29 0.38,0.26 0.61,0.84 0.74,1.16 0.13,0.32 0,0.52 -0.26,0.65 -0.22,0.12 -0.26,0.06 -0.48,-0.36 -0.23,-0.42 -0.42,-0.84 -1.56,-0.84 -1.13,0 -1.48,0.39 -2.03,0.84 -0.55,0.45 -0.75,0.61 -0.94,0.36 -0.2,-0.26 -0.13,-0.52 0.22,-0.84zm11.68 -6.15c0,1 -0.32,2.81 -1.1,3.94 -0.78,1.13 -1.26,1.54 -2.17,1.48 -1.16,-0.1 -3.49,-3.71 -4.98,-3.77 -1.87,-0.07 -5.95,3.9 -9.16,3.9 -1.94,0 -2.52,-0.29 -3.16,-0.71 -0.98,-0.68 -1.46,-1.71 -1.43,-3.13 0.04,-2.51 2.39,-4.87 5.37,-4.9 3.78,-0.03 6.41,3.74 8.31,3.71 1.62,-0.03 4.73,-3.19 6.25,-3.19 1.62,0 2.07,1.67 2.07,2.67z"/>
   </g>
   <g>
   </g>
   <g>
   </g>
   <g>
   </g>
   <g>
   </g>
   <g>
   </g>
   <g>
   </g>
   <g>
   </g>
   <g>
   </g>
   <g>
   </g>
   <g>
   </g>
   <g>
   </g>
   <g>
   </g>
   <g>
   </g>
   <g>
   </g>
   <g>
   </g>
  </g>
 </g>
</svg>
