<?xml version="1.0" encoding="UTF-8"?>
<!DOCTYPE svg PUBLIC "-//W3C//DTD SVG 1.1//EN" "http://www.w3.org/Graphics/SVG/1.1/DTD/svg11.dtd">
<!-- Creator: CorelDRAW 2017 -->
<svg xmlns="http://www.w3.org/2000/svg" xml:space="preserve" width="50px" height="58px" version="1.1" style="shape-rendering:geometricPrecision; text-rendering:geometricPrecision; image-rendering:optimizeQuality; fill-rule:evenodd; clip-rule:evenodd"
viewBox="0 0 50 58.33"
 xmlns:xlink="http://www.w3.org/1999/xlink">
 <defs>
  <style type="text/css">
   <![CDATA[
    .fil0 {fill:white}
   ]]>
  </style>
 </defs>
 <g id="Layer_x0020_1">
  <metadata id="CorelCorpID_0Corel-Layer"/>
  <g id="facebook-letter-logo.svg">
   <g>
    <path id="Facebook" class="fil0" d="M20.83 20.17c0,0.73 0,4.01 0,4.01l-2.94 0 0 4.91 2.94 0 0 14.58 6.04 0 0 -14.58 4.05 0c0,0 0.38,-2.35 0.56,-4.93 -0.53,0 -4.59,0 -4.59,0 0,0 0,-2.85 0,-3.35 0,-0.5 0.66,-1.18 1.31,-1.18 0.65,0 2.02,0 3.29,0 0,-0.66 0,-2.97 0,-5.1 -1.7,0 -3.63,0 -4.48,0 -6.33,0 -6.18,4.91 -6.18,5.64z"/>
   </g>
   <g>
   </g>
   <g>
   </g>
   <g>
   </g>
   <g>
   </g>
   <g>
   </g>
   <g>
   </g>
   <g>
   </g>
   <g>
   </g>
   <g>
   </g>
   <g>
   </g>
   <g>
   </g>
   <g>
   </g>
   <g>
   </g>
   <g>
   </g>
   <g>
   </g>
  </g>
 </g>
</svg>
