<?xml version="1.0" encoding="UTF-8"?>
<!DOCTYPE svg PUBLIC "-//W3C//DTD SVG 1.1//EN" "http://www.w3.org/Graphics/SVG/1.1/DTD/svg11.dtd">
<!-- Creator: CorelDRAW 2017 -->
<svg xmlns="http://www.w3.org/2000/svg" xml:space="preserve" width="50px" height="58px" version="1.1" style="shape-rendering:geometricPrecision; text-rendering:geometricPrecision; image-rendering:optimizeQuality; fill-rule:evenodd; clip-rule:evenodd"
viewBox="0 0 50 58.33"
 xmlns:xlink="http://www.w3.org/1999/xlink">
 <defs>
  <style type="text/css">
   <![CDATA[
    .fil0 {fill:white}
   ]]>
  </style>
 </defs>
 <g id="Layer_x0020_1">
  <metadata id="CorelCorpID_0Corel-Layer"/>
  <g id="google-plus_x0020_-_x0020_Copy.svg">
   <g>
    <g>
     <g>
      <path class="fil0" d="M36.45 30.38l-15.29 0 0 5.1 9.33 0c-1.39,4.43 -5.53,7.64 -10.42,7.64 -6.03,0 -10.92,-4.89 -10.92,-10.92 0,-6.03 4.89,-10.92 10.92,-10.92 3.04,0 5.79,1.24 7.77,3.24l3.69 -4.02c-2.95,-2.9 -7,-4.68 -11.46,-4.68 -9.05,0 -16.38,7.33 -16.38,16.38 0,9.05 7.33,16.38 16.38,16.38 7.93,0 14.86,-5.63 16.38,-13.1l0 -5.1 0 0 0 0z"/>
      <polygon class="fil0" points="46.38,30.37 43.25,30.37 43.25,27.24 40.57,27.24 40.57,30.37 37.45,30.37 37.45,33.05 40.57,33.05 40.57,36.18 43.25,36.18 43.25,33.05 46.38,33.05 "/>
     </g>
    </g>
    <g>
    </g>
    <g>
    </g>
    <g>
    </g>
    <g>
    </g>
    <g>
    </g>
    <g>
    </g>
    <g>
    </g>
    <g>
    </g>
    <g>
    </g>
    <g>
    </g>
    <g>
    </g>
    <g>
    </g>
    <g>
    </g>
    <g>
    </g>
    <g>
    </g>
   </g>
   <g>
   </g>
   <g>
   </g>
   <g>
   </g>
   <g>
   </g>
   <g>
   </g>
   <g>
   </g>
   <g>
   </g>
   <g>
   </g>
   <g>
   </g>
   <g>
   </g>
   <g>
   </g>
   <g>
   </g>
   <g>
   </g>
   <g>
   </g>
   <g>
   </g>
  </g>
 </g>
</svg>
