<?xml version="1.0" encoding="UTF-8"?>
<!DOCTYPE svg PUBLIC "-//W3C//DTD SVG 1.1//EN" "http://www.w3.org/Graphics/SVG/1.1/DTD/svg11.dtd">
<!-- Creator: CorelDRAW 2017 -->
<svg xmlns="http://www.w3.org/2000/svg" xml:space="preserve" width="50px" height="58px" version="1.1" style="shape-rendering:geometricPrecision; text-rendering:geometricPrecision; image-rendering:optimizeQuality; fill-rule:evenodd; clip-rule:evenodd"
viewBox="0 0 50 58.33"
 xmlns:xlink="http://www.w3.org/1999/xlink">
 <defs>
  <style type="text/css">
   <![CDATA[
    .fil0 {fill:#5FCF80}
   ]]>
  </style>
 </defs>
 <g id="Layer_x0020_1">
  <metadata id="CorelCorpID_0Corel-Layer"/>
  <g id="html5.svg">
   <g id="XMLID_106_">
    <path id="XMLID_107_" class="fil0" d="M14.94 15.81c-0.25,0 -0.44,0.21 -0.42,0.47l2.15 24.12c0.02,0.26 0.24,0.52 0.49,0.59l9.13 2.53c0.24,0.07 0.64,0.07 0.89,0l9.15 -2.54c0.25,-0.06 0.47,-0.33 0.49,-0.58l2.16 -24.12c0.02,-0.26 -0.17,-0.47 -0.43,-0.47l-23.61 0zm19.46 5.54c-0.02,0.22 -0.06,0.62 -0.08,0.87l-0.06 0.63c-0.02,0.26 -0.05,0.62 -0.07,0.81 -0.02,0.19 -0.03,0.35 -0.04,0.35 0,0 -0.21,0 -0.47,0l-6.47 0c-0.25,0 -0.46,0 -0.47,0 0,0 -0.21,0 -0.47,0l-3.4 0c-0.26,0 -0.45,0.21 -0.43,0.46l0.2 2.22c0.03,0.26 0.25,0.46 0.51,0.46l3.12 0c0.26,0 0.47,0 0.47,0 0.01,0 0.22,0 0.47,0l5.38 0c0.25,0 0.65,0 0.87,0 0.23,0 0.4,0.19 0.38,0.42 -0.02,0.22 -0.06,0.62 -0.08,0.87l-0.64 7.16c-0.02,0.26 -0.05,0.58 -0.06,0.73 -0.01,0.14 -0.23,0.31 -0.47,0.38l-5.39 1.49c-0.25,0.07 -0.45,0.13 -0.46,0.13 0,0 -0.21,-0.05 -0.45,-0.12l-5.4 -1.5c-0.25,-0.07 -0.47,-0.33 -0.49,-0.59l-0.35 -3.9c-0.02,-0.25 0.17,-0.46 0.43,-0.46l0.49 0c0.25,0 0.67,0 0.93,0l0.73 0c0.26,0 0.48,0.21 0.51,0.46l0.13 1.53c0.03,0.25 0.25,0.52 0.49,0.58l2.53 0.68c0.24,0.07 0.45,0.13 0.45,0.13 0,0 0.2,-0.06 0.45,-0.13l2.53 -0.68c0.24,-0.07 0.46,-0.33 0.49,-0.58l0.27 -3.06c0.02,-0.26 -0.17,-0.46 -0.42,-0.46l-2.85 0c-0.25,0 -0.46,0 -0.47,0 0,0 -0.21,0 -0.47,0l-5.93 0c-0.26,0 -0.48,-0.21 -0.51,-0.47l-0.67 -7.54c-0.02,-0.25 -0.06,-0.65 -0.08,-0.87 -0.02,-0.23 0.17,-0.41 0.43,-0.41l6.76 0c0.26,0 0.47,0 0.47,0 0.01,0 0.22,0 0.47,0l6.76 0c0.25,0 0.45,0.18 0.43,0.41z"/>
   </g>
   <g>
   </g>
   <g>
   </g>
   <g>
   </g>
   <g>
   </g>
   <g>
   </g>
   <g>
   </g>
   <g>
   </g>
   <g>
   </g>
   <g>
   </g>
   <g>
   </g>
   <g>
   </g>
   <g>
   </g>
   <g>
   </g>
   <g>
   </g>
   <g>
   </g>
  </g>
 </g>
</svg>
