<?xml version="1.0" encoding="UTF-8"?>
<!DOCTYPE svg PUBLIC "-//W3C//DTD SVG 1.1//EN" "http://www.w3.org/Graphics/SVG/1.1/DTD/svg11.dtd">
<!-- Creator: CorelDRAW 2017 -->
<svg xmlns="http://www.w3.org/2000/svg" xml:space="preserve" width="50px" height="58px" version="1.1" style="shape-rendering:geometricPrecision; text-rendering:geometricPrecision; image-rendering:optimizeQuality; fill-rule:evenodd; clip-rule:evenodd"
viewBox="0 0 50 58.33"
 xmlns:xlink="http://www.w3.org/1999/xlink">
 <defs>
  <style type="text/css">
   <![CDATA[
    .fil0 {fill:#5FCF80}
   ]]>
  </style>
 </defs>
 <g id="Layer_x0020_1">
  <metadata id="CorelCorpID_0Corel-Layer"/>
  <g id="joomla-logo.svg">
   <g>
    <path class="fil0" d="M7.66 16.7c0,-2.66 2.15,-4.81 4.81,-4.81 2.39,0 4.37,1.74 4.75,4.03 2.59,-0.61 5.43,0.1 7.45,2.12l0.28 0.28 -3.55 3.55 -0.28 -0.28c-1.15,-1.15 -3.01,-1.15 -4.17,0 -1.15,1.16 -1.15,3.03 0,4.18l0.69 0.69 3.55 3.55 3.76 3.75 -3.55 3.55 -3.76 -3.76 -3.55 -3.54 -0.69 -0.7c-2.14,-2.14 -2.81,-5.2 -1.99,-7.92 -2.15,-0.48 -3.75,-2.4 -3.75,-4.69zm10.4 9.34l3.55 3.55 3.76 -3.75 3.55 -3.55 0.69 -0.69c1.15,-1.16 3.02,-1.16 4.16,-0.01 1.16,1.15 1.16,3.02 0,4.17l-0.27 0.28 3.55 3.55 0.27 -0.28c2.12,-2.13 2.8,-5.15 2.02,-7.84 2.36,-0.31 4.18,-2.33 4.18,-4.77 0,-2.66 -2.15,-4.81 -4.81,-4.81 -2.43,0 -4.44,1.8 -4.76,4.15 -2.71,-0.8 -5.75,-0.13 -7.89,2.01l-0.69 0.69 -3.55 3.55 -3.76 3.75zm21.37 12.18c0.64,-2.61 -0.07,-5.48 -2.11,-7.52l-0.69 -0.69 -3.55 -3.55 -3.75 -3.75 -3.55 3.54 3.75 3.75 3.55 3.55 0.69 0.7c1.16,1.16 1.16,3.02 0.01,4.17 -1.15,1.15 -3.02,1.15 -4.17,-0.01l-0.28 -0.27 -3.54 3.55 0.27 0.27c2.16,2.16 5.25,2.82 7.98,1.98 0.44,2.2 2.39,3.85 4.71,3.85 2.66,0 4.81,-2.15 4.81,-4.81 0,-2.42 -1.79,-4.43 -4.13,-4.76zm-6.77 -4.25l-3.55 -3.54 -3.74 3.75 -3.55 3.54 -0.7 0.7c-1.14,1.15 -3.02,1.15 -4.17,-0.01 -1.15,-1.15 -1.15,-3.01 0,-4.17l0.27 -0.27 -3.55 -3.54 -0.27 0.26c-2.06,2.07 -2.76,4.98 -2.09,7.61 -2.11,0.5 -3.69,2.41 -3.69,4.68 0,2.66 2.15,4.81 4.81,4.81 2.28,0 4.19,-1.59 4.68,-3.73 2.62,0.65 5.51,-0.04 7.56,-2.09l0.7 -0.7 3.54 -3.55 3.75 -3.75z"/>
   </g>
   <g>
   </g>
   <g>
   </g>
   <g>
   </g>
   <g>
   </g>
   <g>
   </g>
   <g>
   </g>
   <g>
   </g>
   <g>
   </g>
   <g>
   </g>
   <g>
   </g>
   <g>
   </g>
   <g>
   </g>
   <g>
   </g>
   <g>
   </g>
   <g>
   </g>
  </g>
 </g>
</svg>
