<?xml version="1.0" encoding="UTF-8"?>
<!DOCTYPE svg PUBLIC "-//W3C//DTD SVG 1.1//EN" "http://www.w3.org/Graphics/SVG/1.1/DTD/svg11.dtd">
<!-- Creator: CorelDRAW 2017 -->
<svg xmlns="http://www.w3.org/2000/svg" xml:space="preserve" width="50px" height="58px" version="1.1" style="shape-rendering:geometricPrecision; text-rendering:geometricPrecision; image-rendering:optimizeQuality; fill-rule:evenodd; clip-rule:evenodd"
viewBox="0 0 50 58.33"
 xmlns:xlink="http://www.w3.org/1999/xlink">
 <defs>
  <style type="text/css">
   <![CDATA[
    .str1 {stroke:white;stroke-width:1.97;stroke-miterlimit:2.61313}
    .str0 {stroke:white;stroke-width:0.03;stroke-miterlimit:2.61313}
    .fil0 {fill:white}
   ]]>
  </style>
 </defs>
 <g id="Layer_x0020_1">
  <metadata id="CorelCorpID_0Corel-Layer"/>
  <g id="_1743580186896">
   <path class="fil0 str0" d="M18.72 28.32c0.85,0 1.53,-0.37 1.53,-0.83 0,0 0,-5.09 0,-5.09 0,-0.05 0.08,-0.09 0.16,-0.09l0.33 0c0.09,0 0.16,0.04 0.16,0.09 0,0 0,14.27 0,14.27 0,0.59 0.88,1.07 1.98,1.07 1.09,0 1.97,-0.48 1.97,-1.07 0,0 0,-8.4 0,-8.4 0,-0.06 0.05,-0.08 0.17,-0.08l0.31 0c0.12,0 0.17,0.02 0.17,0.08 0,0 0,8.4 0,8.4 0,0.59 0.88,1.07 1.97,1.07 1.1,0 1.98,-0.48 1.98,-1.07 0,0 0,-14.27 0,-14.27 0,-0.05 0.07,-0.09 0.16,-0.09l0.32 0c0.09,0 0.16,0.04 0.16,0.09 0,0 0.01,5.09 0.01,5.09 0,0.46 0.68,0.83 1.53,0.83 0.85,0 1.53,-0.38 1.53,-0.84 0,0 0,-5.71 0,-5.78 0,-1.14 -1.61,-2.02 -3.63,-2.02 -0.05,0 -2.76,0 -4.03,0 0,0 -0.26,0 -0.65,0 -1.27,0 -3.98,0 -4.03,0 -2.02,0 -3.63,0.88 -3.63,2.02 0,0.07 0,5.78 0,5.78 0,0.47 0.68,0.84 1.53,0.84z"/>
   <circle class="fil0 str1" cx="25.17" cy="15.95" r="2.55"/>
  </g>
  <g id="_1743585042880">
  </g>
  <g id="_1743585043104">
  </g>
  <g id="_1743585043296">
  </g>
  <g id="_1743585043168">
  </g>
  <g id="_1743585041024">
  </g>
  <g id="_1743585041056">
  </g>
  <g id="_1743585040704">
  </g>
  <g id="_1743585040768">
  </g>
  <g id="_1743585039680">
  </g>
  <g id="_1743585041216">
  </g>
  <g id="_1742196292496">
  </g>
  <g id="_1742196289744">
  </g>
  <g id="_1742196290960">
  </g>
  <g id="_1742196289776">
  </g>
  <g id="_1742196287760">
  </g>
 </g>
</svg>
