<?xml version="1.0" encoding="UTF-8"?>
<!DOCTYPE svg PUBLIC "-//W3C//DTD SVG 1.1//EN" "http://www.w3.org/Graphics/SVG/1.1/DTD/svg11.dtd">
<!-- Creator: CorelDRAW 2017 -->
<svg xmlns="http://www.w3.org/2000/svg" xml:space="preserve" width="50px" height="58px" version="1.1" style="shape-rendering:geometricPrecision; text-rendering:geometricPrecision; image-rendering:optimizeQuality; fill-rule:evenodd; clip-rule:evenodd"
viewBox="0 0 50 58.33"
 xmlns:xlink="http://www.w3.org/1999/xlink">
 <defs>
  <style type="text/css">
   <![CDATA[
    .fil0 {fill:white}
   ]]>
  </style>
 </defs>
 <g id="Layer_x0020_1">
  <metadata id="CorelCorpID_0Corel-Layer"/>
  <g id="twitter.svg">
   <path class="fil0" d="M31.63 25.29c-0.36,0.16 -0.73,0.28 -1.11,0.38 0.42,-0.4 0.74,-0.9 0.91,-1.46l0 0c0.05,-0.16 -0.12,-0.29 -0.26,-0.21l0 0c-0.53,0.31 -1.1,0.55 -1.7,0.7 -0.03,0.01 -0.07,0.01 -0.1,0.01 -0.11,0 -0.22,-0.04 -0.3,-0.11 -0.63,-0.56 -1.45,-0.87 -2.29,-0.87 -0.37,0 -0.74,0.06 -1.1,0.17 -1.13,0.35 -1.99,1.28 -2.27,2.43 -0.1,0.42 -0.13,0.85 -0.08,1.27 0.01,0.05 -0.02,0.08 -0.03,0.1 -0.02,0.03 -0.06,0.04 -0.1,0.04 0,0 0,0 -0.01,0 -2.46,-0.23 -4.68,-1.41 -6.25,-3.34l0 0c-0.08,-0.09 -0.23,-0.08 -0.29,0.03l0 0c-0.31,0.52 -0.47,1.13 -0.47,1.74 0,0.94 0.37,1.83 1.03,2.47 -0.28,-0.06 -0.54,-0.17 -0.79,-0.3l0 0c-0.12,-0.07 -0.27,0.01 -0.27,0.15l0 0c-0.02,1.4 0.8,2.64 2.02,3.2 -0.02,0 -0.05,0 -0.07,0 -0.19,0 -0.39,-0.02 -0.58,-0.05l0 0c-0.14,-0.03 -0.25,0.1 -0.21,0.23l0 0c0.4,1.24 1.47,2.15 2.74,2.36 -1.06,0.72 -2.29,1.09 -3.58,1.09l-0.4 0c-0.12,0 -0.23,0.08 -0.26,0.2 -0.03,0.12 0.03,0.24 0.13,0.3 1.45,0.85 3.1,1.29 4.78,1.29 1.47,0 2.85,-0.29 4.09,-0.86 1.14,-0.53 2.15,-1.28 2.99,-2.24 0.79,-0.9 1.41,-1.93 1.83,-3.07 0.41,-1.09 0.62,-2.25 0.62,-3.36l0 -0.05c0,-0.18 0.08,-0.34 0.23,-0.46 0.53,-0.43 0.99,-0.94 1.37,-1.51l0 0c0.11,-0.15 -0.05,-0.34 -0.22,-0.27l0 0z"/>
   <g>
   </g>
   <g>
   </g>
   <g>
   </g>
   <g>
   </g>
   <g>
   </g>
   <g>
   </g>
   <g>
   </g>
   <g>
   </g>
   <g>
   </g>
   <g>
   </g>
   <g>
   </g>
   <g>
   </g>
   <g>
   </g>
   <g>
   </g>
   <g>
   </g>
  </g>
 </g>
</svg>
