<svg id="Group_1" data-name="Group 1" xmlns="http://www.w3.org/2000/svg" width="979" height="494" viewBox="0 0 979 494">
  <g id="Rectangle_1" data-name="Rectangle 1" transform="translate(226 119)" fill="#858282" stroke="#707070" stroke-width="1">
    <rect width="380" height="15" stroke="none"/>
    <rect x="0.5" y="0.5" width="379" height="14" fill="none"/>
  </g>
  <g id="Rectangle_2" data-name="Rectangle 2" transform="translate(365 152)" fill="#858282" stroke="#707070" stroke-width="1">
    <rect width="380" height="15" stroke="none"/>
    <rect x="0.5" y="0.5" width="379" height="14" fill="none"/>
  </g>
  <g id="Rectangle_3" data-name="Rectangle 3" transform="translate(326 195)" fill="#858282" stroke="#707070" stroke-width="1">
    <rect width="380" height="15" stroke="none"/>
    <rect x="0.5" y="0.5" width="379" height="14" fill="none"/>
  </g>
  <g id="Rectangle_4" data-name="Rectangle 4" transform="translate(251 246)" fill="#858282" stroke="#707070" stroke-width="1">
    <rect width="380" height="15" stroke="none"/>
    <rect x="0.5" y="0.5" width="379" height="14" fill="none"/>
  </g>
  <g id="Rectangle_5" data-name="Rectangle 5" transform="translate(361 274)" fill="#858282" stroke="#707070" stroke-width="1">
    <rect width="380" height="15" stroke="none"/>
    <rect x="0.5" y="0.5" width="379" height="14" fill="none"/>
  </g>
  <g id="Rectangle_6" data-name="Rectangle 6" transform="translate(353 311)" fill="#858282" stroke="#707070" stroke-width="1">
    <rect width="380" height="15" stroke="none"/>
    <rect x="0.5" y="0.5" width="379" height="14" fill="none"/>
  </g>
  <g id="Rectangle_7" data-name="Rectangle 7" transform="translate(286 354)" fill="#858282" stroke="#707070" stroke-width="1">
    <rect width="380" height="15" stroke="none"/>
    <rect x="0.5" y="0.5" width="379" height="14" fill="none"/>
  </g>
  <rect id="Rectangle_8" data-name="Rectangle 8" width="979" height="494" fill="none"/>
</svg>
